<svg xmlns="http://www.w3.org/2000/svg" xmlns:xlink="http://www.w3.org/1999/xlink" width="500" zoomAndPan="magnify" viewBox="0 0 375 374.999991" height="500" preserveAspectRatio="xMidYMid meet" version="1.0"><defs><g/><clipPath id="670c45fc30"><path d="M 199.265625 186.476562 L 289.222656 186.476562 L 289.222656 239.171875 L 199.265625 239.171875 Z M 199.265625 186.476562 " clip-rule="nonzero"/></clipPath><clipPath id="12e52d4250"><path d="M 218.183594 239.171875 L 289.082031 239.171875 L 289.082031 186.476562 L 199.265625 186.476562 Z M 218.183594 239.171875 " clip-rule="nonzero"/></clipPath><clipPath id="23fcf80a5a"><path d="M 129 104 L 211 104 L 211 208 L 129 208 Z M 129 104 " clip-rule="nonzero"/></clipPath><clipPath id="80e9d3a872"><path d="M 211.664062 102.316406 L 231.488281 203.902344 L 146.835938 220.421875 L 127.011719 118.835938 Z M 211.664062 102.316406 " clip-rule="nonzero"/></clipPath><clipPath id="985253e5bb"><path d="M 211.664062 102.316406 L 231.488281 203.902344 L 146.835938 220.421875 L 127.011719 118.835938 Z M 211.664062 102.316406 " clip-rule="nonzero"/></clipPath><clipPath id="168eb84f87"><path d="M 128 102 L 212 102 L 212 209 L 128 209 Z M 128 102 " clip-rule="nonzero"/></clipPath><clipPath id="e270ae289c"><path d="M 211.664062 102.316406 L 231.488281 203.902344 L 146.835938 220.421875 L 127.011719 118.835938 Z M 211.664062 102.316406 " clip-rule="nonzero"/></clipPath><clipPath id="6a56ff58b0"><path d="M 211.664062 102.316406 L 231.488281 203.902344 L 146.835938 220.421875 L 127.011719 118.835938 Z M 211.664062 102.316406 " clip-rule="nonzero"/></clipPath><clipPath id="3c4114f5a4"><path d="M 96 117 L 182 117 L 182 176 L 96 176 Z M 96 117 " clip-rule="nonzero"/></clipPath><clipPath id="e5293c6968"><path d="M 181.347656 113.09375 L 183.117188 173.816406 L 96.902344 176.324219 L 95.136719 115.601562 Z M 181.347656 113.09375 " clip-rule="nonzero"/></clipPath><clipPath id="1b89bfd73d"><path d="M 181.347656 113.09375 L 183.117188 173.816406 L 96.902344 176.324219 L 95.136719 115.601562 Z M 181.347656 113.09375 " clip-rule="nonzero"/></clipPath><clipPath id="60bf4e70b2"><path d="M 95 115 L 183 115 L 183 177 L 95 177 Z M 95 115 " clip-rule="nonzero"/></clipPath><clipPath id="2253a097b9"><path d="M 181.347656 113.09375 L 183.117188 173.816406 L 96.902344 176.324219 L 95.136719 115.601562 Z M 181.347656 113.09375 " clip-rule="nonzero"/></clipPath><clipPath id="e53dc53ca1"><path d="M 181.347656 113.09375 L 183.117188 173.816406 L 96.902344 176.324219 L 95.136719 115.601562 Z M 181.347656 113.09375 " clip-rule="nonzero"/></clipPath></defs><g clip-path="url(#670c45fc30)"><g clip-path="url(#12e52d4250)"><path fill="#e5af42" d="M 199.265625 239.171875 L 199.265625 186.476562 L 289.015625 186.476562 L 289.015625 239.171875 Z M 199.265625 239.171875 " fill-opacity="1" fill-rule="nonzero"/></g></g><g clip-path="url(#23fcf80a5a)"><g clip-path="url(#80e9d3a872)"><g clip-path="url(#985253e5bb)"><path fill="#000000" d="M 129.484375 123.5 L 192.652344 164.578125 L 208.277344 207.210938 L 209.910156 153.996094 L 183.878906 136.59375 L 210.558594 104.097656 Z M 129.484375 123.5 " fill-opacity="1" fill-rule="nonzero"/></g></g></g><g clip-path="url(#168eb84f87)"><g clip-path="url(#e270ae289c)"><g clip-path="url(#6a56ff58b0)"><path fill="#e5af42" d="M 128.183594 123.753906 C 128.152344 123.597656 128.148438 123.4375 128.179688 123.273438 C 128.269531 122.75 128.660156 122.332031 129.175781 122.207031 L 210.25 102.808594 C 210.804688 102.675781 211.382812 102.910156 211.683594 103.394531 C 211.988281 103.878906 211.949219 104.5 211.585938 104.941406 L 185.835938 136.304688 L 210.648438 152.890625 C 211.03125 153.144531 211.253906 153.578125 211.238281 154.035156 L 209.601562 207.253906 C 209.582031 207.886719 209.117188 208.421875 208.488281 208.523438 C 207.859375 208.625 207.25 208.265625 207.03125 207.667969 L 191.558594 165.453125 L 128.761719 124.613281 C 128.457031 124.414062 128.25 124.101562 128.183594 123.753906 Z M 207.027344 106.308594 L 132.800781 124.070312 L 193.375 163.46875 C 193.613281 163.625 193.796875 163.855469 193.898438 164.121094 L 207.160156 200.308594 L 208.5625 154.6875 L 183.140625 137.695312 C 182.828125 137.488281 182.617188 137.160156 182.566406 136.789062 C 182.511719 136.417969 182.613281 136.039062 182.851562 135.75 Z M 207.027344 106.308594 " fill-opacity="1" fill-rule="nonzero"/></g></g></g><g clip-path="url(#3c4114f5a4)"><g clip-path="url(#e5293c6968)"><g clip-path="url(#1b89bfd73d)"><path fill="#000000" d="M 96.527344 117.003906 L 119.035156 154.863281 L 98.21875 175.082031 L 181.460938 172.660156 Z M 96.527344 117.003906 " fill-opacity="1" fill-rule="nonzero"/></g></g></g><g clip-path="url(#60bf4e70b2)"><g clip-path="url(#2253a097b9)"><g clip-path="url(#e53dc53ca1)"><path fill="#ffffff" d="M 95.183594 117.042969 C 95.175781 116.675781 95.316406 116.304688 95.597656 116.035156 C 96.050781 115.601562 96.742188 115.539062 97.265625 115.882812 L 182.199219 171.539062 C 182.6875 171.859375 182.914062 172.460938 182.753906 173.027344 C 182.59375 173.589844 182.085938 173.988281 181.5 174.003906 L 98.257812 176.425781 C 97.703125 176.441406 97.195312 176.117188 96.980469 175.605469 C 96.765625 175.097656 96.882812 174.503906 97.28125 174.121094 L 117.339844 154.640625 L 95.371094 117.691406 C 95.253906 117.488281 95.191406 117.265625 95.183594 117.042969 Z M 120.378906 154.824219 C 120.390625 155.191406 120.25 155.558594 119.972656 155.828125 L 101.632812 173.640625 L 177.152344 171.441406 L 100.652344 121.3125 L 120.191406 154.179688 C 120.3125 154.378906 120.375 154.601562 120.378906 154.824219 Z M 120.378906 154.824219 " fill-opacity="1" fill-rule="nonzero"/></g></g></g><g fill="#000000" fill-opacity="1"><g transform="translate(95.224266, 238.518208)"><g><path d="M 11.484375 -7.0625 C 11.660156 -7.019531 11.945312 -7 12.34375 -7 C 13.09375 -7 13.617188 -7.171875 13.921875 -7.515625 C 14.234375 -7.867188 14.390625 -8.488281 14.390625 -9.375 L 14.390625 -22.640625 C 14.390625 -24.179688 13.6875 -24.953125 12.28125 -24.953125 C 12.1875 -24.953125 12.050781 -24.9375 11.875 -24.90625 C 11.695312 -24.882812 11.566406 -24.875 11.484375 -24.875 Z M 11.484375 -32.734375 C 11.566406 -32.734375 11.695312 -32.722656 11.875 -32.703125 C 12.050781 -32.679688 12.1875 -32.671875 12.28125 -32.671875 C 13.019531 -32.671875 13.554688 -32.84375 13.890625 -33.1875 C 14.222656 -33.539062 14.390625 -34.160156 14.390625 -35.046875 L 14.390625 -44.359375 C 14.390625 -45.847656 13.75 -46.59375 12.46875 -46.59375 L 11.484375 -46.59375 Z M 13.59375 -53.59375 C 17.425781 -53.59375 20.046875 -52.929688 21.453125 -51.609375 C 22.816406 -50.378906 23.5 -47.875 23.5 -44.09375 L 23.5 -37.03125 C 23.5 -34.695312 23.175781 -32.921875 22.53125 -31.703125 C 21.894531 -30.492188 20.875 -29.582031 19.46875 -28.96875 C 20.914062 -28.3125 21.945312 -27.390625 22.5625 -26.203125 C 23.1875 -25.015625 23.5 -23.164062 23.5 -20.65625 L 23.5 -10.828125 C 23.5 -6.160156 22.796875 -3.1875 21.390625 -1.90625 C 19.972656 -0.632812 17.085938 0 12.734375 0 L 2.3125 0 L 2.3125 -53.59375 Z M 13.59375 -53.59375 "/></g></g></g><g fill="#000000" fill-opacity="1"><g transform="translate(120.893694, 238.518208)"><g><path d="M 11.484375 -53.59375 L 11.484375 -7.0625 L 16.96875 -7.0625 L 16.96875 0 L 2.3125 0 L 2.3125 -53.59375 Z M 11.484375 -53.59375 "/></g></g></g><g fill="#000000" fill-opacity="1"><g transform="translate(138.710518, 238.518208)"><g><path d="M 11.484375 -53.59375 L 11.484375 0 L 2.3125 0 L 2.3125 -53.59375 Z M 11.484375 -53.59375 "/></g></g></g><g fill="#000000" fill-opacity="1"><g transform="translate(152.436069, 238.518208)"><g><path d="M 18.671875 -53.59375 L 18.671875 -46.46875 L 14.1875 -46.46875 L 14.1875 0 L 5.015625 0 L 5.015625 -46.46875 L 0.53125 -46.46875 L 0.53125 -53.59375 Z M 18.671875 -53.59375 "/></g></g></g><g fill="#000000" fill-opacity="1"><g transform="translate(171.704634, 238.518208)"><g><path d="M 18.15625 -53.59375 L 18.15625 -46.328125 L 10.421875 -7.53125 L 18.15625 -7.53125 L 18.15625 0 L 1.0625 0 L 1.0625 -7.53125 L 8.78125 -46.328125 L 2.046875 -46.328125 L 2.046875 -53.59375 Z M 18.15625 -53.59375 "/></g></g></g><g fill="#000000" fill-opacity="1"><g transform="translate(191.56709, 238.518208)"><g><path d="M 10.09375 -9.4375 L 10.09375 0 L 2.515625 0 L 2.515625 -9.4375 Z M 10.09375 -9.4375 "/></g></g></g><g fill="#000000" fill-opacity="1"><g transform="translate(226.448062, 226.243212)"><g><path d="M 0.90625 -19.625 C 0.90625 -21.78125 1.203125 -23.128906 1.796875 -23.671875 C 2.378906 -24.234375 3.710938 -24.515625 5.796875 -24.515625 C 7.828125 -24.515625 9.132812 -24.222656 9.71875 -23.640625 C 10.300781 -23.054688 10.59375 -21.71875 10.59375 -19.625 L 10.59375 -16.015625 L 6.421875 -16.015625 L 6.421875 -20.21875 C 6.421875 -20.632812 6.367188 -20.910156 6.265625 -21.046875 C 6.171875 -21.191406 5.992188 -21.265625 5.734375 -21.265625 C 5.492188 -21.265625 5.316406 -21.1875 5.203125 -21.03125 C 5.097656 -20.882812 5.046875 -20.613281 5.046875 -20.21875 L 5.046875 -4.109375 C 5.046875 -3.734375 5.097656 -3.46875 5.203125 -3.3125 C 5.316406 -3.164062 5.503906 -3.09375 5.765625 -3.09375 C 6.003906 -3.09375 6.171875 -3.160156 6.265625 -3.296875 C 6.367188 -3.441406 6.421875 -3.710938 6.421875 -4.109375 L 6.421875 -9.421875 L 5.796875 -9.421875 L 5.796875 -12.625 L 10.59375 -12.625 L 10.59375 0 L 8.84375 0 L 8.15625 -1.40625 C 7.71875 -0.832031 7.238281 -0.425781 6.71875 -0.1875 C 6.195312 0.0390625 5.488281 0.15625 4.59375 0.15625 C 3.269531 0.15625 2.320312 -0.15625 1.75 -0.78125 C 1.1875 -1.414062 0.90625 -2.492188 0.90625 -4.015625 Z M 0.90625 -19.625 "/></g></g></g><g fill="#000000" fill-opacity="1"><g transform="translate(238.718054, 226.243212)"><g><path d="M 4.953125 -8.4375 L 6.359375 -8.4375 L 5.734375 -19.53125 L 5.609375 -19.53125 Z M 8.4375 -24.359375 L 10.890625 0 L 6.84375 0 L 6.546875 -5.1875 L 4.796875 -5.1875 L 4.5 0 L 0.484375 0 L 2.875 -24.359375 Z M 8.4375 -24.359375 "/></g></g></g><g fill="#000000" fill-opacity="1"><g transform="translate(250.928045, 226.243212)"><g><path d="M 5.90625 -24.359375 L 7.4375 -12.6875 L 7.65625 -12.6875 L 9.1875 -24.359375 L 14.046875 -24.359375 L 14.046875 0 L 10.3125 0 L 10.46875 -14.40625 L 10.234375 -14.40625 L 8.640625 0 L 6.453125 0 L 4.859375 -14.40625 L 4.625 -14.40625 L 4.765625 0 L 1.046875 0 L 1.046875 -24.359375 Z M 5.90625 -24.359375 "/></g></g></g><g fill="#000000" fill-opacity="1"><g transform="translate(266.738037, 226.243212)"><g><path d="M 7.703125 -24.359375 L 7.703125 -21.1875 L 5.21875 -21.1875 L 5.21875 -14.96875 L 7.703125 -14.96875 L 7.703125 -11.765625 L 5.21875 -11.765625 L 5.21875 -3.203125 L 7.703125 -3.203125 L 7.703125 0 L 1.046875 0 L 1.046875 -24.359375 Z M 7.703125 -24.359375 "/></g></g></g><g fill="#e5af42" fill-opacity="1"><g transform="translate(167.245907, 264.951398)"><g><path d="M 4.296875 -9.0625 C 5.453125 -9.0625 6.03125 -8.441406 6.03125 -7.203125 L 6.03125 -1.84375 C 6.03125 -0.613281 5.453125 0 4.296875 0 L 0.703125 0 L 0.703125 -9.0625 Z M 4.078125 -1.625 L 4.078125 -7.453125 C 4.078125 -7.523438 4.050781 -7.585938 4 -7.640625 C 3.945312 -7.703125 3.882812 -7.734375 3.8125 -7.734375 L 2.65625 -7.734375 L 2.65625 -1.34375 L 3.8125 -1.34375 C 3.882812 -1.34375 3.945312 -1.367188 4 -1.421875 C 4.050781 -1.484375 4.078125 -1.550781 4.078125 -1.625 Z M 4.078125 -1.625 "/></g></g></g><g fill="#e5af42" fill-opacity="1"><g transform="translate(179.632125, 264.951398)"><g><path d="M 2.65625 -1.625 L 4.828125 -1.625 L 4.828125 0 L 0.703125 0 L 0.703125 -9.0625 L 4.828125 -9.0625 L 4.828125 -7.46875 L 2.65625 -7.46875 L 2.65625 -5.328125 L 4.6875 -5.328125 L 4.6875 -3.796875 L 2.65625 -3.796875 Z M 2.65625 -1.625 "/></g></g></g><g fill="#e5af42" fill-opacity="1"><g transform="translate(190.493202, 264.951398)"><g><path d="M 4.296875 -9.203125 C 5.453125 -9.203125 6.03125 -8.582031 6.03125 -7.34375 L 6.03125 0 L 4.078125 0 L 4.078125 -3.03125 L 2.65625 -3.03125 L 2.65625 0 L 0.703125 0 L 0.703125 -7.34375 C 0.703125 -8.582031 1.28125 -9.203125 2.4375 -9.203125 Z M 2.65625 -4.546875 L 4.078125 -4.546875 L 4.078125 -7.59375 C 4.078125 -7.664062 4.050781 -7.726562 4 -7.78125 C 3.945312 -7.84375 3.882812 -7.875 3.8125 -7.875 L 2.921875 -7.875 C 2.847656 -7.875 2.785156 -7.84375 2.734375 -7.78125 C 2.679688 -7.726562 2.65625 -7.664062 2.65625 -7.59375 Z M 2.65625 -4.546875 "/></g></g></g><g fill="#e5af42" fill-opacity="1"><g transform="translate(202.879419, 264.951398)"><g><path d="M 2.65625 -1.65625 L 4.796875 -1.65625 L 4.796875 0 L 0.703125 0 L 0.703125 -9.0625 L 2.65625 -9.0625 Z M 2.65625 -1.65625 "/></g></g></g><g fill="#e5af42" fill-opacity="1"><g transform="translate(213.502631, 264.951398)"><g><path d="M 5.71875 -6.671875 L 3.859375 -6.671875 L 3.859375 -7.390625 C 3.859375 -7.460938 3.832031 -7.523438 3.78125 -7.578125 C 3.726562 -7.640625 3.664062 -7.671875 3.59375 -7.671875 L 2.828125 -7.671875 C 2.753906 -7.671875 2.691406 -7.640625 2.640625 -7.578125 C 2.585938 -7.523438 2.5625 -7.460938 2.5625 -7.390625 L 2.5625 -5.78125 C 2.5625 -5.707031 2.585938 -5.640625 2.640625 -5.578125 C 2.691406 -5.523438 2.753906 -5.5 2.828125 -5.5 L 4.09375 -5.5 C 5.25 -5.476562 5.828125 -4.863281 5.828125 -3.65625 L 5.828125 -1.703125 C 5.828125 -0.472656 5.25 0.140625 4.09375 0.140625 L 2.4375 0.140625 C 1.28125 0.140625 0.703125 -0.472656 0.703125 -1.703125 L 0.703125 -2.640625 L 2.5625 -2.640625 L 2.5625 -1.640625 C 2.5625 -1.566406 2.585938 -1.5 2.640625 -1.4375 C 2.691406 -1.382812 2.753906 -1.359375 2.828125 -1.359375 L 3.703125 -1.359375 C 3.773438 -1.359375 3.835938 -1.382812 3.890625 -1.4375 C 3.941406 -1.5 3.96875 -1.566406 3.96875 -1.640625 L 3.96875 -3.421875 C 3.96875 -3.492188 3.941406 -3.554688 3.890625 -3.609375 C 3.835938 -3.671875 3.773438 -3.703125 3.703125 -3.703125 L 2.4375 -3.703125 C 1.28125 -3.703125 0.703125 -4.316406 0.703125 -5.546875 L 0.703125 -7.34375 C 0.703125 -8.582031 1.28125 -9.203125 2.4375 -9.203125 L 3.984375 -9.203125 C 5.140625 -9.203125 5.71875 -8.582031 5.71875 -7.34375 Z M 5.71875 -6.671875 "/></g></g></g></svg>