<?xml version="1.0" encoding="UTF-8" standalone="no"?>
<!DOCTYPE svg PUBLIC "-//W3C//DTD SVG 1.1//EN" "http://www.w3.org/Graphics/SVG/1.1/DTD/svg11.dtd">
<!-- Created with Vectornator (http://vectornator.io/) -->
<svg height="100%" stroke-miterlimit="10" style="fill-rule:nonzero;clip-rule:evenodd;stroke-linecap:round;stroke-linejoin:round;" version="1.1" viewBox="0 0 450 467.215" width="100%" xml:space="preserve" xmlns="http://www.w3.org/2000/svg" xmlns:vectornator="http://vectornator.io" xmlns:xlink="http://www.w3.org/1999/xlink">
<defs/>
<clipPath id="ArtboardFrame">
<rect height="467.215" width="450" x="0" y="0"/>
</clipPath>
<g clip-path="url(#ArtboardFrame)" id="Ohne-Titel" vectornator:layerName="Ohne Titel">
<path d="M-3.04 17.6601L446.96 17.6601L446.96 17.6601L446.96 467.66L446.96 467.66L-3.04 467.66L-3.04 467.66L-3.04 17.6601L-3.04 17.6601Z" fill="#ffffff" fill-opacity="0" fill-rule="nonzero" opacity="1" stroke="none" vectornator:layerName="rect"/>
<g opacity="1" vectornator:layerName="Kurve 1">
<path d="M14.3555 0L14.3555 2.0507L8.5547 2.0507L8.5547 17.2148L6.1875 17.2148L6.1875 2.0507L0.3867 2.0507L0.3867 0L14.3555 0Z" fill="#000000" fill-opacity="0" fill-rule="nonzero" opacity="1" stroke="none" vectornator:layerName="path"/>
<path d="M18.7734 4.3828C19.6641 4.3828 20.5273 4.5918 21.3633 5.0097C22.1992 5.4277 22.8359 5.9687 23.2734 6.6328C23.6953 7.2656 23.9766 8.0039 24.1172 8.8476C24.2422 9.4257 24.3047 10.3476 24.3047 11.6132L15.1055 11.6132C15.1445 12.8867 15.4453 13.9082 16.0078 14.6777C16.5703 15.4472 17.4414 15.832 18.6211 15.832C19.7227 15.832 20.6016 15.4687 21.2578 14.7421C21.6328 14.3203 21.8984 13.832 22.0547 13.2773L24.1289 13.2773C24.0742 13.7382 23.8926 14.2519 23.584 14.8183C23.2754 15.3847 22.9297 15.8476 22.5469 16.207C21.9062 16.832 21.1133 17.2539 20.168 17.4726C19.6602 17.5976 19.0859 17.6601 18.4453 17.6601C16.8828 17.6601 15.5586 17.0918 14.4727 15.955C13.3867 14.8183 12.8438 13.2265 12.8438 11.1796C12.8438 9.164 13.3906 7.5273 14.4844 6.2695C15.5781 5.0117 17.0078 4.3828 18.7734 4.3828ZM22.1367 9.9375C22.0508 9.0234 21.8516 8.2929 21.5391 7.746C20.9609 6.7304 19.9961 6.2226 18.6445 6.2226C17.6758 6.2226 16.8633 6.5722 16.207 7.2714C15.5508 7.9707 15.2031 8.8593 15.1641 9.9375L22.1367 9.9375Z" fill="#000000" fill-opacity="0" fill-rule="nonzero" opacity="1" stroke="none" vectornator:layerName="path"/>
<path d="M25.6992 4.664L28.4297 4.664L31.3125 9.082L34.2305 4.664L36.7969 4.7226L32.5664 10.7812L36.9844 17.2148L34.2891 17.2148L31.1719 12.5039L28.1484 17.2148L25.4766 17.2148L29.8945 10.7812L25.6992 4.664Z" fill="#000000" fill-opacity="0" fill-rule="nonzero" opacity="1" stroke="none" vectornator:layerName="path"/>
<path d="M39.3164 1.1601L41.4492 1.1601L41.4492 4.664L43.4531 4.664L43.4531 6.3867L41.4492 6.3867L41.4492 14.5781C41.4492 15.0156 41.5977 15.3085 41.8945 15.457C42.0586 15.5429 42.332 15.5859 42.7148 15.5859C42.8164 15.5859 42.9258 15.5839 43.043 15.58C43.1602 15.5761 43.2969 15.5664 43.4531 15.5507L43.4531 17.2148C43.2109 17.2851 42.959 17.3359 42.6973 17.3671C42.4355 17.3984 42.1523 17.414 41.8477 17.414C40.8633 17.414 40.1953 17.1621 39.8438 16.6582C39.4922 16.1543 39.3164 15.5 39.3164 14.6953L39.3164 6.3867L37.6172 6.3867L37.6172 4.664L39.3164 4.664L39.3164 1.1601Z" fill="#000000" fill-opacity="0" fill-rule="nonzero" opacity="1" stroke="none" vectornator:layerName="path"/>
</g>
<g opacity="1" vectornator:layerName="path">
<clipPath clip-rule="nonzero" id="ClipPath">
<path d="M236.766 241.192L326.723 241.192L326.723 293.887L236.766 293.887L236.766 241.192Z"/>
</clipPath>
<g clip-path="url(#ClipPath)">
<clipPath clip-rule="nonzero" id="ClipPath_2">
<path d="M255.684 293.887L326.582 293.887L326.582 241.192L236.766 241.192L255.684 293.887Z"/>
</clipPath>
<g clip-path="url(#ClipPath_2)">
<path d="M236.766 293.887L236.766 241.192L326.516 241.192L326.516 293.887L236.766 293.887Z" fill="#e5af42" fill-rule="nonzero" opacity="1" stroke="none" vectornator:layerName="path"/>
</g>
</g>
</g>
<g opacity="1" vectornator:layerName="path">
<clipPath clip-rule="nonzero" id="ClipPath_3">
<path d="M166.5 158.715L248.5 158.715L248.5 262.715L166.5 262.715L166.5 158.715Z"/>
</clipPath>
<g clip-path="url(#ClipPath_3)">
<clipPath clip-rule="nonzero" id="ClipPath_4">
<path d="M249.164 157.031L268.988 258.617L184.336 275.137L164.512 173.551L249.164 157.031Z"/>
</clipPath>
<g clip-path="url(#ClipPath_4)">
<clipPath clip-rule="nonzero" id="ClipPath_5">
<path d="M249.164 157.031L268.988 258.617L184.336 275.137L164.512 173.551L249.164 157.031Z"/>
</clipPath>
<g clip-path="url(#ClipPath_5)">
<path d="M166.984 178.215L230.152 219.293L245.777 261.926L247.41 208.711L221.379 191.309L248.059 158.813L166.984 178.215Z" fill="#000000" fill-rule="nonzero" opacity="1" stroke="none" vectornator:layerName="path"/>
</g>
</g>
</g>
</g>
<g opacity="1" vectornator:layerName="path">
<clipPath clip-rule="nonzero" id="ClipPath_6">
<path d="M165.5 156.715L249.5 156.715L249.5 263.715L165.5 263.715L165.5 156.715Z"/>
</clipPath>
<g clip-path="url(#ClipPath_6)">
<clipPath clip-rule="nonzero" id="ClipPath_7">
<path d="M249.164 157.031L268.988 258.617L184.336 275.137L164.512 173.551L249.164 157.031Z"/>
</clipPath>
<g clip-path="url(#ClipPath_7)">
<clipPath clip-rule="nonzero" id="ClipPath_8">
<path d="M249.164 157.031L268.988 258.617L184.336 275.137L164.512 173.551L249.164 157.031Z"/>
</clipPath>
<g clip-path="url(#ClipPath_8)">
<path d="M165.684 178.469C165.652 178.313 165.648 178.153 165.68 177.988C165.77 177.465 166.16 177.047 166.676 176.922L247.75 157.524C248.305 157.391 248.883 157.625 249.184 158.11C249.488 158.594 249.449 159.215 249.086 159.656L223.336 191.02L248.148 207.606C248.531 207.86 248.754 208.293 248.738 208.75L247.102 261.969C247.082 262.602 246.617 263.137 245.988 263.238C245.359 263.34 244.75 262.981 244.531 262.383L229.059 220.168L166.262 179.328C165.957 179.129 165.75 178.817 165.684 178.469ZM244.527 161.024L170.301 178.785L230.875 218.184C231.113 218.34 231.297 218.57 231.398 218.836L244.66 255.024L246.062 209.403L220.641 192.41C220.328 192.203 220.117 191.875 220.066 191.504C220.012 191.133 220.113 190.754 220.352 190.465L244.527 161.024Z" fill="#e5af42" fill-rule="nonzero" opacity="1" stroke="none" vectornator:layerName="path"/>
</g>
</g>
</g>
</g>
<g opacity="1" vectornator:layerName="path">
<clipPath clip-rule="nonzero" id="ClipPath_9">
<path d="M133.5 171.715L219.5 171.715L219.5 230.715L133.5 230.715L133.5 171.715Z"/>
</clipPath>
<g clip-path="url(#ClipPath_9)">
<clipPath clip-rule="nonzero" id="ClipPath_10">
<path d="M218.848 167.809L220.617 228.531L134.402 231.039L132.637 170.317L218.848 167.809Z"/>
</clipPath>
<g clip-path="url(#ClipPath_10)">
<clipPath clip-rule="nonzero" id="ClipPath_11">
<path d="M218.848 167.809L220.617 228.531L134.402 231.039L132.637 170.317L218.848 167.809Z"/>
</clipPath>
<g clip-path="url(#ClipPath_11)">
<path d="M134.027 171.719L156.535 209.578L135.719 229.797L218.961 227.375L134.027 171.719Z" fill="#000000" fill-rule="nonzero" opacity="1" stroke="none" vectornator:layerName="path"/>
</g>
</g>
</g>
</g>
<g opacity="1" vectornator:layerName="path">
<clipPath clip-rule="nonzero" id="ClipPath_12">
<path d="M132.5 169.715L220.5 169.715L220.5 231.715L132.5 231.715L132.5 169.715Z"/>
</clipPath>
<g clip-path="url(#ClipPath_12)">
<clipPath clip-rule="nonzero" id="ClipPath_13">
<path d="M218.848 167.809L220.617 228.531L134.402 231.039L132.637 170.317L218.848 167.809Z"/>
</clipPath>
<g clip-path="url(#ClipPath_13)">
<clipPath clip-rule="nonzero" id="ClipPath_14">
<path d="M218.848 167.809L220.617 228.531L134.402 231.039L132.637 170.317L218.848 167.809Z"/>
</clipPath>
<g clip-path="url(#ClipPath_14)">
<path d="M132.684 171.758C132.676 171.391 132.816 171.02 133.098 170.75C133.551 170.317 134.242 170.254 134.766 170.598L219.699 226.254C220.188 226.574 220.414 227.176 220.254 227.742C220.094 228.305 219.586 228.703 219 228.719L135.758 231.141C135.203 231.156 134.695 230.832 134.481 230.32C134.266 229.813 134.383 229.219 134.781 228.836L154.84 209.356L132.871 172.406C132.754 172.203 132.691 171.981 132.684 171.758ZM157.879 209.539C157.891 209.906 157.75 210.274 157.473 210.543L139.133 228.356L214.652 226.156L138.152 176.027L157.691 208.895C157.812 209.094 157.875 209.317 157.879 209.539Z" fill="#ffffff" fill-rule="nonzero" opacity="1" stroke="none" vectornator:layerName="path"/>
</g>
</g>
</g>
</g>
<path d="M144.209 286.171C144.384 286.214 144.67 286.233 145.068 286.233C145.818 286.233 146.341 286.061 146.646 285.718C146.959 285.366 147.115 284.745 147.115 283.858L147.115 270.593C147.115 269.054 146.412 268.28 145.006 268.28C144.912 268.28 144.775 268.296 144.599 268.327C144.42 268.35 144.291 268.358 144.209 268.358L144.209 286.171ZM144.209 260.499C144.291 260.499 144.42 260.511 144.599 260.53C144.775 260.554 144.912 260.561 145.006 260.561C145.744 260.561 146.279 260.389 146.615 260.046C146.947 259.694 147.115 259.073 147.115 258.186L147.115 248.874C147.115 247.386 146.474 246.639 145.193 246.639L144.209 246.639L144.209 260.499ZM146.318 239.639C150.15 239.639 152.771 240.304 154.177 241.624C155.541 242.854 156.224 245.358 156.224 249.139L156.224 256.202C156.224 258.538 155.9 260.311 155.256 261.53C154.619 262.741 153.599 263.651 152.193 264.264C153.638 264.921 154.67 265.843 155.287 267.03C155.912 268.218 156.224 270.069 156.224 272.577L156.224 282.405C156.224 287.073 155.521 290.046 154.115 291.327C152.697 292.6 149.81 293.233 145.459 293.233L135.037 293.233L135.037 239.639L146.318 239.639Z" fill="#ffffff" fill-rule="nonzero" opacity="1" stroke="none" vectornator:layerName="path"/>
<path d="M169.878 239.639L169.878 286.171L175.362 286.171L175.362 293.233L160.706 293.233L160.706 239.639L169.878 239.639Z" fill="#ffffff" fill-rule="nonzero" opacity="1" stroke="none" vectornator:layerName="path"/>
<path d="M187.695 239.639L187.695 293.233L178.523 293.233L178.523 239.639L187.695 239.639Z" fill="#ffffff" fill-rule="nonzero" opacity="1" stroke="none" vectornator:layerName="path"/>
<path d="M208.608 239.639L208.608 246.764L204.124 246.764L204.124 293.233L194.952 293.233L194.952 246.764L190.467 246.764L190.467 239.639L208.608 239.639Z" fill="#ffffff" fill-rule="nonzero" opacity="1" stroke="none" vectornator:layerName="path"/>
<path d="M227.361 239.639L227.361 246.905L219.627 285.702L227.361 285.702L227.361 293.233L210.267 293.233L210.267 285.702L217.986 246.905L211.252 246.905L211.252 239.639L227.361 239.639Z" fill="#ffffff" fill-rule="nonzero" opacity="1" stroke="none" vectornator:layerName="path"/>
<path d="M239.161 283.796L239.161 293.233L231.583 293.233L231.583 283.796L239.161 283.796Z" fill="#ffffff" fill-rule="nonzero" opacity="1" stroke="none" vectornator:layerName="path"/>
<path d="M264.854 261.333C264.854 259.177 265.151 257.829 265.745 257.286C266.327 256.724 267.659 256.443 269.745 256.443C271.776 256.443 273.081 256.736 273.667 257.318C274.249 257.904 274.542 259.239 274.542 261.333L274.542 264.943L270.37 264.943L270.37 260.739C270.37 260.325 270.315 260.048 270.214 259.911C270.12 259.767 269.94 259.693 269.682 259.693C269.44 259.693 269.264 259.771 269.151 259.927C269.046 260.075 268.995 260.345 268.995 260.739L268.995 276.849C268.995 277.224 269.046 277.489 269.151 277.646C269.264 277.794 269.452 277.864 269.714 277.864C269.952 277.864 270.12 277.798 270.214 277.661C270.315 277.517 270.37 277.247 270.37 276.849L270.37 271.536L269.745 271.536L269.745 268.333L274.542 268.333L274.542 280.958L272.792 280.958L272.104 279.552C271.667 280.126 271.186 280.532 270.667 280.771C270.143 280.997 269.436 281.114 268.542 281.114C267.218 281.114 266.268 280.802 265.698 280.177C265.136 279.544 264.854 278.466 264.854 276.943L264.854 261.333Z" fill="#000000" fill-rule="nonzero" opacity="1" stroke="none" vectornator:layerName="path"/>
<path d="M281.171 272.521L282.577 272.521L281.952 261.427L281.827 261.427L281.171 272.521ZM284.656 256.599L287.109 280.958L283.062 280.958L282.765 275.771L281.015 275.771L280.718 280.958L276.702 280.958L279.093 256.599L284.656 256.599Z" fill="#000000" fill-rule="nonzero" opacity="1" stroke="none" vectornator:layerName="path"/>
<path d="M294.334 256.599L295.866 268.271L296.084 268.271L297.616 256.599L302.475 256.599L302.475 280.958L298.741 280.958L298.897 266.552L298.662 266.552L297.069 280.958L294.881 280.958L293.287 266.552L293.053 266.552L293.194 280.958L289.475 280.958L289.475 256.599L294.334 256.599Z" fill="#000000" fill-rule="nonzero" opacity="1" stroke="none" vectornator:layerName="path"/>
<path d="M311.941 256.599L311.941 259.771L309.457 259.771L309.457 265.989L311.941 265.989L311.941 269.193L309.457 269.193L309.457 277.755L311.941 277.755L311.941 280.958L305.285 280.958L305.285 256.599L311.941 256.599Z" fill="#000000" fill-rule="nonzero" opacity="1" stroke="none" vectornator:layerName="path"/>
<path d="M209.043 310.604C210.199 310.604 210.777 311.225 210.777 312.463L210.777 317.823C210.777 319.053 210.199 319.666 209.043 319.666L205.449 319.666L205.449 310.604L209.043 310.604ZM208.824 318.041L208.824 312.213C208.824 312.143 208.797 312.08 208.746 312.026C208.691 311.963 208.629 311.932 208.558 311.932L207.402 311.932L207.402 318.323L208.558 318.323C208.629 318.323 208.691 318.299 208.746 318.245C208.797 318.182 208.824 318.116 208.824 318.041Z" fill="#e5af42" fill-rule="nonzero" opacity="1" stroke="none" vectornator:layerName="path"/>
<path d="M219.788 318.041L221.96 318.041L221.96 319.666L217.835 319.666L217.835 310.604L221.96 310.604L221.96 312.198L219.788 312.198L219.788 314.338L221.82 314.338L221.82 315.87L219.788 315.87L219.788 318.041Z" fill="#e5af42" fill-rule="nonzero" opacity="1" stroke="none" vectornator:layerName="path"/>
<path d="M232.29 310.463C233.446 310.463 234.024 311.084 234.024 312.323L234.024 319.666L232.071 319.666L232.071 316.635L230.649 316.635L230.649 319.666L228.696 319.666L228.696 312.323C228.696 311.084 229.274 310.463 230.431 310.463L232.29 310.463ZM230.649 315.12L232.071 315.12L232.071 312.073C232.071 312.002 232.044 311.94 231.993 311.885C231.939 311.823 231.876 311.791 231.806 311.791L230.915 311.791C230.841 311.791 230.778 311.823 230.728 311.885C230.673 311.94 230.649 312.002 230.649 312.073L230.649 315.12Z" fill="#e5af42" fill-rule="nonzero" opacity="1" stroke="none" vectornator:layerName="path"/>
<path d="M243.036 318.01L245.176 318.01L245.176 319.666L241.083 319.666L241.083 310.604L243.036 310.604L243.036 318.01Z" fill="#e5af42" fill-rule="nonzero" opacity="1" stroke="none" vectornator:layerName="path"/>
<path d="M256.721 312.995L254.862 312.995L254.862 312.276C254.862 312.205 254.835 312.143 254.784 312.088C254.729 312.026 254.667 311.995 254.596 311.995L253.831 311.995C253.757 311.995 253.694 312.026 253.643 312.088C253.589 312.143 253.565 312.205 253.565 312.276L253.565 313.885C253.565 313.959 253.589 314.026 253.643 314.088C253.694 314.143 253.757 314.166 253.831 314.166L255.096 314.166C256.253 314.19 256.831 314.803 256.831 316.01L256.831 317.963C256.831 319.194 256.253 319.807 255.096 319.807L253.44 319.807C252.284 319.807 251.706 319.194 251.706 317.963L251.706 317.026L253.565 317.026L253.565 318.026C253.565 318.1 253.589 318.166 253.643 318.229C253.694 318.284 253.757 318.307 253.831 318.307L254.706 318.307C254.776 318.307 254.839 318.284 254.893 318.229C254.944 318.166 254.971 318.1 254.971 318.026L254.971 316.245C254.971 316.174 254.944 316.112 254.893 316.057C254.839 315.995 254.776 315.963 254.706 315.963L253.44 315.963C252.284 315.963 251.706 315.35 251.706 314.12L251.706 312.323C251.706 311.084 252.284 310.463 253.44 310.463L254.987 310.463C256.143 310.463 256.721 311.084 256.721 312.323L256.721 312.995Z" fill="#e5af42" fill-rule="nonzero" opacity="1" stroke="none" vectornator:layerName="path"/>
</g>
</svg>
